<svg width="340" height="64" viewBox="0 0 340 64" fill="none" xmlns="http://www.w3.org/2000/svg">
<path d="M24.6541 2.71509C24.6881 2.71587 24.7219 2.71787 24.7557 2.72095L24.8358 2.72681C25.0303 2.75253 25.2185 2.81651 25.3895 2.91528L32.7791 7.18481L32.7801 7.18579L40.1873 11.4709L47.577 15.7405L47.742 15.8508C48.1075 16.1324 48.3259 16.5705 48.326 17.0393V39.0432C48.3259 44.3082 45.6055 49.1857 41.1571 51.9573L40.7215 52.219L40.1864 52.5286C40.1493 52.55 40.1097 52.5662 40.0711 52.5842L32.9354 56.6965C32.8806 56.7394 32.8227 56.7793 32.7615 56.8147L25.3719 61.0842C25.1439 61.2159 24.8852 61.2853 24.6219 61.2854H24.6043C24.4063 61.2854 24.2108 61.2466 24.0291 61.1711L23.8524 61.0833L16.4989 56.8245L16.4823 56.8167L9.07499 52.5471C9.04409 52.5293 9.01569 52.5075 8.98619 52.4875L1.66681 48.259C1.20292 47.991 0.916809 47.496 0.916809 46.9602V24.9573C0.916939 19.5219 3.81659 14.4991 8.52329 11.7805L23.8709 2.91528L23.8856 2.90649C23.9094 2.89306 23.9342 2.88153 23.9588 2.86938L24.0076 2.84497C24.0144 2.84192 24.0213 2.83913 24.0281 2.83618C24.0422 2.83011 24.0568 2.82523 24.0711 2.81958C24.1007 2.80787 24.13 2.79609 24.16 2.78638C24.1764 2.78106 24.1931 2.77648 24.2098 2.77173C24.2406 2.76291 24.2715 2.75505 24.3026 2.74829C24.3178 2.745 24.3331 2.74233 24.3485 2.7395C24.3832 2.73307 24.418 2.7278 24.453 2.72388C24.4633 2.72271 24.4738 2.7219 24.4842 2.72095C24.5236 2.71736 24.563 2.71554 24.6024 2.71509C24.6089 2.715 24.6154 2.71411 24.6219 2.71411H24.6395L24.6541 2.71509ZM15.703 19.6389C12.9833 21.2085 11.3075 24.1101 11.3074 27.2502V50.3704L17.9715 54.2112L17.9832 54.218L24.6131 58.0569L31.0877 54.3167C31.1426 54.2738 31.2012 54.2348 31.2625 54.1995L38.6698 49.9299L38.785 49.8723L39.2205 49.6213L39.5701 49.4114C43.1417 47.1863 45.3259 43.2703 45.326 39.0432V17.9045L40.9344 15.3674L40.9227 36.7571C40.9203 40.9648 38.6745 44.8523 35.0311 46.9573L25.7196 52.3352C25.2875 52.787 24.6096 52.9306 24.0262 52.6692L23.8895 52.5989L16.4823 48.3293C16.3684 48.2637 16.2627 48.184 16.1698 48.0911L16.1531 48.0735L16.0496 47.9592C15.7758 47.6232 15.6702 47.1961 15.7313 46.7893V25.5959C15.7314 24.7676 16.4029 24.0959 17.2313 24.0959C18.0596 24.0959 18.7311 24.7676 18.7313 25.5959V33.3518L30.5106 26.5354V17.9045L24.6043 14.5002L15.703 19.6389ZM10.0233 14.3782C6.24449 16.5608 3.91699 20.5935 3.91679 24.9573V46.094L8.30739 48.6301V27.2502C8.30749 23.038 10.5555 19.1456 14.2039 17.0403L23.8553 11.4709L24.034 11.3831C24.4603 11.2075 24.9485 11.2361 25.3543 11.47L32.5828 15.636C33.0709 15.8376 33.4278 16.2892 33.4969 16.8313C33.4982 16.8407 33.4997 16.8502 33.5008 16.8596C33.5019 16.87 33.5028 16.8804 33.5037 16.8909C33.5081 16.9346 33.5101 16.9786 33.5106 17.0227V38.4045C33.5105 39.2329 32.839 39.9045 32.0106 39.9045C31.1822 39.9045 30.5106 39.2329 30.5106 38.4045V30.0002L18.7313 36.8167V46.1633L24.576 49.5325L33.5301 44.3596C36.2462 42.7904 37.9208 39.8929 37.9227 36.7561L37.9354 13.634L31.2791 9.78149L24.6307 5.94067L10.0233 14.3782Z" fill="#0EE09E"/>
<path d="M86.3365 51.086C81.9509 51.086 78.4509 50.1302 75.8364 48.2185C73.2501 46.3069 71.8304 43.6502 71.5774 40.2486H76.6798C76.7923 42.4132 77.6919 44.086 79.3786 45.2667C81.0654 46.4193 83.4268 46.9956 86.463 46.9956C89.1618 46.9956 91.2281 46.5177 92.6619 45.5619C94.0956 44.606 94.8125 43.1863 94.8125 41.3028C94.8125 39.8409 94.3064 38.6462 93.2944 37.7184C92.3104 36.7907 90.8345 36.1441 88.8666 35.7787L82.3305 34.4714C79.3786 33.8811 77.1296 32.8268 75.5834 31.3088C74.0372 29.7626 73.2641 27.8368 73.2641 25.5316C73.2641 22.5798 74.3746 20.2464 76.5955 18.5316C78.8164 16.7886 81.8385 15.9171 85.6618 15.9171C89.5132 15.9171 92.6478 16.8307 95.0655 18.6581C97.5113 20.4573 98.9169 22.9734 99.2824 26.2063H94.1799C93.3366 22.0456 90.3988 19.9653 85.3666 19.9653C83.0614 19.9653 81.2481 20.4151 79.9268 21.3147C78.6336 22.2143 77.9871 23.4934 77.9871 25.1521C77.9871 27.8228 79.8847 29.5377 83.6799 30.2967L90.5112 31.6461C93.4912 32.2365 95.7402 33.3188 97.2583 34.8931C98.7763 36.4393 99.5354 38.4494 99.5354 40.9233C99.5354 44.1281 98.3687 46.6301 96.0354 48.4294C93.702 50.2005 90.4691 51.086 86.3365 51.086ZM116.996 51.086C114.381 51.086 112.09 50.5519 110.122 49.4836C108.183 48.3872 106.679 46.855 105.61 44.8872C104.542 42.9193 104.008 40.6 104.008 37.9293C104.008 35.2586 104.542 32.9393 105.61 30.9714C106.679 29.0035 108.183 27.4854 110.122 26.4172C112.09 25.3208 114.381 24.7726 116.996 24.7726C119.695 24.7726 122 25.3067 123.912 26.375C125.851 27.4433 127.341 28.9614 128.382 30.9292C129.45 32.8971 129.984 35.2305 129.984 37.9293C129.984 40.6 129.45 42.9333 128.382 44.9293C127.341 46.8972 125.851 48.4153 123.912 49.4836C121.972 50.5519 119.667 51.086 116.996 51.086ZM116.996 46.9534C119.61 46.9534 121.635 46.1663 123.068 44.592C124.53 42.9896 125.261 40.7687 125.261 37.9293C125.261 35.0618 124.53 32.8409 123.068 31.2666C121.635 29.6923 119.61 28.9051 116.996 28.9051C114.41 28.9051 112.386 29.7063 110.924 31.3088C109.462 32.8831 108.731 35.0899 108.731 37.9293C108.731 40.7687 109.462 42.9896 110.924 44.592C112.386 46.1663 114.41 46.9534 116.996 46.9534ZM145.677 51.0438C142.416 51.0438 139.858 50.1442 138.003 48.345C136.147 46.5177 135.22 44.0719 135.22 41.0076V25.2786H139.942V39.9956C139.942 42.2727 140.533 44.0016 141.714 45.1823C142.894 46.335 144.609 46.9113 146.858 46.9113C149.248 46.9113 151.089 46.3069 152.382 45.098C153.704 43.8611 154.364 42.1462 154.364 39.9534V25.2786H159.087V45.6884H161.533V50.58H156.473V46.7004H154.702C153.802 48.1061 152.593 49.1884 151.075 49.9474C149.557 50.6784 147.758 51.0438 145.677 51.0438ZM167.735 50.58V30.1702H165.289V25.2786H170.35V30.0015H172.121C172.823 28.4553 173.906 27.2465 175.368 26.375C176.858 25.5035 178.601 25.0678 180.597 25.0678H182.663V29.116H180.344C177.813 29.116 175.86 29.861 174.482 31.3509C173.105 32.8409 172.416 34.8509 172.416 37.3811V50.58H167.735ZM197.095 51.086C194.536 51.086 192.301 50.5519 190.39 49.4836C188.478 48.3872 186.988 46.855 185.92 44.8872C184.88 42.9193 184.36 40.6 184.36 37.9293C184.36 35.2586 184.88 32.9393 185.92 30.9714C186.96 29.0035 188.436 27.4854 190.348 26.4172C192.259 25.3208 194.508 24.7726 197.095 24.7726C200.187 24.7726 202.759 25.5457 204.812 27.0919C206.892 28.6099 208.255 30.8027 208.902 33.6702H204.137C203.659 32.0397 202.83 30.8449 201.649 30.0859C200.496 29.2987 198.978 28.9051 197.095 28.9051C194.593 28.9051 192.625 29.6923 191.191 31.2666C189.785 32.8409 189.082 35.0618 189.082 37.9293C189.082 40.7687 189.785 42.9896 191.191 44.592C192.625 46.1663 194.593 46.9534 197.095 46.9534C201.002 46.9534 203.406 45.2245 204.305 41.7667H209.071C208.452 44.7747 207.103 47.0799 205.022 48.6824C202.942 50.2848 200.299 51.086 197.095 51.086ZM224.732 51.086C222.089 51.086 219.798 50.5519 217.858 49.4836C215.918 48.3872 214.414 46.841 213.346 44.845C212.306 42.849 211.786 40.5156 211.786 37.8449C211.786 35.1742 212.306 32.869 213.346 30.9292C214.414 28.9614 215.904 27.4433 217.816 26.375C219.728 25.3067 221.963 24.7726 224.521 24.7726C226.967 24.7726 229.075 25.2645 230.846 26.2485C232.645 27.2324 234.037 28.624 235.021 30.4232C236.005 32.2224 236.497 34.359 236.497 36.8329V38.7305H216.34C216.481 41.3731 217.282 43.4394 218.744 44.9293C220.234 46.3912 222.216 47.1221 224.69 47.1221C226.404 47.1221 227.852 46.7707 229.033 46.0679C230.214 45.337 231.029 44.2687 231.479 42.8631H236.286C235.668 45.4775 234.332 47.5016 232.28 48.9354C230.256 50.3691 227.74 51.086 224.732 51.086ZM216.509 35.2726H231.943C231.718 33.1923 230.945 31.5758 229.623 30.4232C228.33 29.2706 226.615 28.6943 224.479 28.6943C222.37 28.6943 220.613 29.2706 219.208 30.4232C217.802 31.5758 216.902 33.1923 216.509 35.2726ZM242.64 50.58V16.4231H247.49V30.8027H267.141V16.4231H271.99V50.58H267.141V34.9353H247.49V50.58H242.64ZM289.876 51.0438C286.614 51.0438 284.056 50.1442 282.201 48.345C280.345 46.5177 279.418 44.0719 279.418 41.0076V25.2786H284.141V39.9956C284.141 42.2727 284.731 44.0016 285.912 45.1823C287.092 46.335 288.807 46.9113 291.056 46.9113C293.446 46.9113 295.287 46.3069 296.58 45.098C297.902 43.8611 298.562 42.1462 298.562 39.9534V25.2786H303.285V45.6884H305.731V50.58H300.671V46.7004H298.9C298 48.1061 296.791 49.1884 295.273 49.9474C293.755 50.6784 291.956 51.0438 289.876 51.0438ZM325.481 51.086C323.457 51.086 321.714 50.7205 320.252 49.9896C318.79 49.2306 317.637 48.1342 316.794 46.7004H315.023V50.58H309.962V45.6884H312.408V15.158H317.131V29.369H317.3C318.059 27.879 319.183 26.7405 320.673 25.9533C322.163 25.1661 323.906 24.7726 325.902 24.7726C328.292 24.7726 330.344 25.3067 332.059 26.375C333.802 27.4433 335.137 28.9614 336.065 30.9292C336.993 32.8971 337.457 35.2305 337.457 37.9293C337.457 40.6281 336.979 42.9614 336.023 44.9293C335.095 46.8972 333.746 48.4153 331.975 49.4836C330.204 50.5519 328.039 51.086 325.481 51.086ZM324.764 47.0378C327.294 47.0378 329.248 46.2366 330.625 44.6341C332.031 43.0317 332.734 40.7968 332.734 37.9293C332.734 35.0618 332.031 32.8268 330.625 31.2244C329.248 29.622 327.294 28.8208 324.764 28.8208C322.459 28.8208 320.603 29.4814 319.197 30.8027C317.82 32.124 317.131 33.8811 317.131 36.0739V39.7847C317.131 41.9775 317.82 43.7345 319.197 45.0558C320.603 46.3771 322.459 47.0378 324.764 47.0378Z" fill="black"/>
</svg>
