<svg width="340" height="64" viewBox="0 0 340 64" fill="none" xmlns="http://www.w3.org/2000/svg">
<path d="M24.0322 2.71509C24.0662 2.71587 24.1 2.71787 24.1338 2.72095L24.2139 2.72681C24.4084 2.75253 24.5966 2.81651 24.7676 2.91528L32.1572 7.18481L32.1582 7.18579L39.5654 11.4709L46.9551 15.7405L47.1201 15.8508C47.4856 16.1324 47.704 16.5705 47.7041 17.0393V39.0432C47.704 44.3082 44.9836 49.1857 40.5352 51.9573L40.0996 52.219L39.5645 52.5286C39.5274 52.55 39.4878 52.5662 39.4492 52.5842L32.3135 56.6965C32.2587 56.7394 32.2008 56.7793 32.1396 56.8147L24.75 61.0842C24.522 61.2159 24.2633 61.2853 24 61.2854H23.9824C23.7844 61.2854 23.5889 61.2466 23.4072 61.1711L23.2305 61.0833L15.877 56.8245L15.8604 56.8167L8.4531 52.5471C8.4222 52.5293 8.3938 52.5075 8.3643 52.4875L1.04492 48.259C0.581032 47.991 0.294922 47.496 0.294922 46.9602V24.9573C0.295052 19.5219 3.1947 14.4991 7.9014 11.7805L23.249 2.91528L23.2637 2.90649C23.2875 2.89306 23.3123 2.88153 23.3369 2.86938L23.3857 2.84497C23.3925 2.84192 23.3994 2.83913 23.4062 2.83618C23.4203 2.83011 23.4349 2.82523 23.4492 2.81958C23.4788 2.80787 23.5081 2.79609 23.5381 2.78638C23.5545 2.78106 23.5712 2.77648 23.5879 2.77173C23.6187 2.76291 23.6496 2.75505 23.6807 2.74829C23.6959 2.745 23.7112 2.74233 23.7266 2.7395C23.7613 2.73307 23.7961 2.7278 23.8311 2.72388C23.8414 2.72271 23.8519 2.7219 23.8623 2.72095C23.9017 2.71736 23.9411 2.71554 23.9805 2.71509C23.987 2.715 23.9935 2.71411 24 2.71411H24.0176L24.0322 2.71509ZM15.0811 19.6389C12.3614 21.2085 10.6856 24.1101 10.6855 27.2502V50.3704L17.3496 54.2112L17.3613 54.218L23.9912 58.0569L30.4658 54.3167C30.5207 54.2738 30.5793 54.2348 30.6406 54.1995L38.0479 49.9299L38.1631 49.8723L38.5986 49.6213L38.9482 49.4114C42.5198 47.1863 44.704 43.2703 44.7041 39.0432V17.9045L40.3125 15.3674L40.3008 36.7571C40.2984 40.9648 38.0526 44.8523 34.4092 46.9573L25.0977 52.3352C24.6656 52.787 23.9877 52.9306 23.4043 52.6692L23.2676 52.5989L15.8604 48.3293C15.7465 48.2637 15.6408 48.184 15.5479 48.0911L15.5312 48.0735L15.4277 47.9592C15.1539 47.6232 15.0483 47.1961 15.1094 46.7893V25.5959C15.1095 24.7676 15.781 24.0959 16.6094 24.0959C17.4377 24.0959 18.1092 24.7676 18.1094 25.5959V33.3518L29.8887 26.5354V17.9045L23.9824 14.5002L15.0811 19.6389ZM9.4014 14.3782C5.6226 16.5608 3.2951 20.5935 3.2949 24.9573V46.094L7.6855 48.6301V27.2502C7.6856 23.038 9.9336 19.1456 13.582 17.0403L23.2334 11.4709L23.4121 11.3831C23.8384 11.2075 24.3266 11.2361 24.7324 11.47L31.9609 15.636C32.449 15.8376 32.8059 16.2892 32.875 16.8313C32.8763 16.8407 32.8778 16.8502 32.8789 16.8596C32.88 16.87 32.8809 16.8804 32.8818 16.8909C32.8862 16.9346 32.8882 16.9786 32.8887 17.0227V38.4045C32.8886 39.2329 32.2171 39.9045 31.3887 39.9045C30.5603 39.9045 29.8887 39.2329 29.8887 38.4045V30.0002L18.1094 36.8167V46.1633L23.9541 49.5325L32.9082 44.3596C35.6243 42.7904 37.2989 39.8929 37.3008 36.7561L37.3135 13.634L30.6572 9.78149L24.0088 5.94067L9.4014 14.3782Z" fill="#0EE09E"/>
<path d="M85.7146 51.086C81.329 51.086 77.829 50.1302 75.2145 48.2185C72.6282 46.3069 71.2085 43.6502 70.9555 40.2486H76.0579C76.1704 42.4132 77.07 44.086 78.7567 45.2667C80.4435 46.4193 82.805 46.9956 85.8411 46.9956C88.5399 46.9956 90.6062 46.5177 92.04 45.5619C93.4737 44.606 94.1906 43.1863 94.1906 41.3028C94.1906 39.8409 93.6846 38.6462 92.6725 37.7184C91.6886 36.7907 90.2126 36.1441 88.2448 35.7787L81.7086 34.4714C78.7567 33.8811 76.5077 32.8268 74.9615 31.3088C73.4153 29.7626 72.6422 27.8368 72.6422 25.5316C72.6422 22.5798 73.7527 20.2464 75.9736 18.5316C78.1945 16.7886 81.2166 15.9171 85.0399 15.9171C88.8913 15.9171 92.0259 16.8307 94.4436 18.6581C96.8894 20.4573 98.295 22.9734 98.6605 26.2063H93.558C92.7147 22.0456 89.7769 19.9653 84.7447 19.9653C82.4395 19.9653 80.6262 20.4151 79.3049 21.3147C78.0118 22.2143 77.3652 23.4934 77.3652 25.1521C77.3652 27.8228 79.2628 29.5377 83.058 30.2967L89.8893 31.6461C92.8693 32.2365 95.1183 33.3188 96.6364 34.8931C98.1545 36.4393 98.9135 38.4494 98.9135 40.9233C98.9135 44.1281 97.7468 46.6301 95.4135 48.4294C93.0801 50.2005 89.8472 51.086 85.7146 51.086ZM116.374 51.086C113.76 51.086 111.468 50.5519 109.501 49.4836C107.561 48.3872 106.057 46.855 104.988 44.8872C103.92 42.9193 103.386 40.6 103.386 37.9293C103.386 35.2586 103.92 32.9393 104.988 30.9714C106.057 29.0035 107.561 27.4854 109.501 26.4172C111.468 25.3208 113.76 24.7726 116.374 24.7726C119.073 24.7726 121.378 25.3067 123.29 26.375C125.23 27.4433 126.72 28.9614 127.76 30.9292C128.828 32.8971 129.362 35.2305 129.362 37.9293C129.362 40.6 128.828 42.9333 127.76 44.9293C126.72 46.8972 125.23 48.4153 123.29 49.4836C121.35 50.5519 119.045 51.086 116.374 51.086ZM116.374 46.9534C118.989 46.9534 121.013 46.1663 122.446 44.592C123.908 42.9896 124.639 40.7687 124.639 37.9293C124.639 35.0618 123.908 32.8409 122.446 31.2666C121.013 29.6923 118.989 28.9051 116.374 28.9051C113.788 28.9051 111.764 29.7063 110.302 31.3088C108.84 32.8831 108.109 35.0899 108.109 37.9293C108.109 40.7687 108.84 42.9896 110.302 44.592C111.764 46.1663 113.788 46.9534 116.374 46.9534ZM145.056 51.0438C141.794 51.0438 139.236 50.1442 137.381 48.345C135.525 46.5177 134.598 44.0719 134.598 41.0076V25.2786H139.321V39.9956C139.321 42.2727 139.911 44.0016 141.092 45.1823C142.272 46.335 143.987 46.9113 146.236 46.9113C148.626 46.9113 150.467 46.3069 151.76 45.098C153.082 43.8611 153.742 42.1462 153.742 39.9534V25.2786H158.465V45.6884H160.911V50.58H155.851V46.7004H154.08C153.18 48.1061 151.971 49.1884 150.453 49.9474C148.935 50.6784 147.136 51.0438 145.056 51.0438ZM167.113 50.58V30.1702H164.667V25.2786H169.728V30.0015H171.499C172.202 28.4553 173.284 27.2465 174.746 26.375C176.236 25.5035 177.979 25.0678 179.975 25.0678H182.041V29.116H179.722C177.192 29.116 175.238 29.861 173.86 31.3509C172.483 32.8409 171.794 34.8509 171.794 37.3811V50.58H167.113ZM196.473 51.086C193.914 51.086 191.679 50.5519 189.768 49.4836C187.856 48.3872 186.366 46.855 185.298 44.8872C184.258 42.9193 183.738 40.6 183.738 37.9293C183.738 35.2586 184.258 32.9393 185.298 30.9714C186.338 29.0035 187.814 27.4854 189.726 26.4172C191.637 25.3208 193.886 24.7726 196.473 24.7726C199.565 24.7726 202.137 25.5457 204.19 27.0919C206.27 28.6099 207.633 30.8027 208.28 33.6702H203.515C203.037 32.0397 202.208 30.8449 201.027 30.0859C199.874 29.2987 198.356 28.9051 196.473 28.9051C193.971 28.9051 192.003 29.6923 190.569 31.2666C189.163 32.8409 188.461 35.0618 188.461 37.9293C188.461 40.7687 189.163 42.9896 190.569 44.592C192.003 46.1663 193.971 46.9534 196.473 46.9534C200.38 46.9534 202.784 45.2245 203.684 41.7667H208.449C207.83 44.7747 206.481 47.0799 204.4 48.6824C202.32 50.2848 199.678 51.086 196.473 51.086ZM224.11 51.086C221.467 51.086 219.176 50.5519 217.236 49.4836C215.297 48.3872 213.793 46.841 212.724 44.845C211.684 42.849 211.164 40.5156 211.164 37.8449C211.164 35.1742 211.684 32.869 212.724 30.9292C213.793 28.9614 215.282 27.4433 217.194 26.375C219.106 25.3067 221.341 24.7726 223.899 24.7726C226.345 24.7726 228.453 25.2645 230.224 26.2485C232.024 27.2324 233.415 28.624 234.399 30.4232C235.383 32.2224 235.875 34.359 235.875 36.8329V38.7305H215.718C215.859 41.3731 216.66 43.4394 218.122 44.9293C219.612 46.3912 221.594 47.1221 224.068 47.1221C225.783 47.1221 227.23 46.7707 228.411 46.0679C229.592 45.337 230.407 44.2687 230.857 42.8631H235.664C235.046 45.4775 233.71 47.5016 231.658 48.9354C229.634 50.3691 227.118 51.086 224.11 51.086ZM215.887 35.2726H231.321C231.096 33.1923 230.323 31.5758 229.001 30.4232C227.708 29.2706 225.993 28.6943 223.857 28.6943C221.748 28.6943 219.991 29.2706 218.586 30.4232C217.18 31.5758 216.28 33.1923 215.887 35.2726ZM242.018 50.58V16.4231H246.868V30.8027H266.519V16.4231H271.368V50.58H266.519V34.9353H246.868V50.58H242.018ZM289.254 51.0438C285.993 51.0438 283.434 50.1442 281.579 48.345C279.723 46.5177 278.796 44.0719 278.796 41.0076V25.2786H283.519V39.9956C283.519 42.2727 284.109 44.0016 285.29 45.1823C286.47 46.335 288.185 46.9113 290.434 46.9113C292.824 46.9113 294.665 46.3069 295.958 45.098C297.28 43.8611 297.94 42.1462 297.94 39.9534V25.2786H302.663V45.6884H305.109V50.58H300.049V46.7004H298.278C297.378 48.1061 296.169 49.1884 294.651 49.9474C293.133 50.6784 291.334 51.0438 289.254 51.0438ZM324.859 51.086C322.835 51.086 321.092 50.7205 319.63 49.9896C318.168 49.2306 317.015 48.1342 316.172 46.7004H314.401V50.58H309.341V45.6884H311.786V15.158H316.509V29.369H316.678C317.437 27.879 318.562 26.7405 320.051 25.9533C321.541 25.1661 323.284 24.7726 325.28 24.7726C327.67 24.7726 329.722 25.3067 331.437 26.375C333.18 27.4433 334.515 28.9614 335.443 30.9292C336.371 32.8971 336.835 35.2305 336.835 37.9293C336.835 40.6281 336.357 42.9614 335.401 44.9293C334.473 46.8972 333.124 48.4153 331.353 49.4836C329.582 50.5519 327.417 51.086 324.859 51.086ZM324.142 47.0378C326.672 47.0378 328.626 46.2366 330.003 44.6341C331.409 43.0317 332.112 40.7968 332.112 37.9293C332.112 35.0618 331.409 32.8268 330.003 31.2244C328.626 29.622 326.672 28.8208 324.142 28.8208C321.837 28.8208 319.981 29.4814 318.576 30.8027C317.198 32.124 316.509 33.8811 316.509 36.0739V39.7847C316.509 41.9775 317.198 43.7345 318.576 45.0558C319.981 46.3771 321.837 47.0378 324.142 47.0378Z" fill="white"/>
</svg>
