<svg width="64" height="64" viewBox="0 0 64 64" fill="none" xmlns="http://www.w3.org/2000/svg">
<path d="M32.0322 2.71509C32.0662 2.71587 32.1 2.71787 32.1338 2.72095L32.2139 2.72681C32.4084 2.75253 32.5966 2.81651 32.7676 2.91528L40.1572 7.18481L40.1582 7.18579L47.5654 11.4709H47.5645L54.9551 15.7405L55.1201 15.8508C55.4856 16.1324 55.704 16.5705 55.7041 17.0393V39.0432C55.704 44.3082 52.9836 49.1857 48.5352 51.9573L48.0996 52.219L47.5645 52.5286C47.5274 52.55 47.4878 52.5662 47.4492 52.5842L40.3135 56.6965C40.2587 56.7394 40.2008 56.7793 40.1396 56.8147L32.75 61.0842C32.522 61.2159 32.2633 61.2853 32 61.2854H31.9824C31.7844 61.2854 31.5889 61.2466 31.4072 61.1711L31.2305 61.0833L23.877 56.8245L23.8604 56.8167L16.4531 52.5471C16.4222 52.5293 16.3938 52.5075 16.3643 52.4875L9.04492 48.259C8.58103 47.991 8.29492 47.496 8.29492 46.9602V24.9573C8.29505 19.5219 11.1947 14.4991 15.9014 11.7805L31.249 2.91528L31.2637 2.90649C31.2875 2.89306 31.3123 2.88153 31.3369 2.86938L31.3857 2.84497C31.3925 2.84192 31.3994 2.83913 31.4062 2.83618C31.4203 2.83011 31.4349 2.82523 31.4492 2.81958C31.4788 2.80787 31.5081 2.79609 31.5381 2.78638C31.5545 2.78106 31.5712 2.77648 31.5879 2.77173C31.6187 2.76291 31.6496 2.75505 31.6807 2.74829C31.6959 2.745 31.7112 2.74233 31.7266 2.7395C31.7613 2.73307 31.7961 2.7278 31.8311 2.72388C31.8414 2.72271 31.8519 2.7219 31.8623 2.72095C31.9017 2.71736 31.9411 2.71554 31.9805 2.71509C31.987 2.715 31.9935 2.71411 32 2.71411H32.0176L32.0322 2.71509ZM23.0811 19.6389C20.3614 21.2085 18.6856 24.1101 18.6855 27.2502V50.3704L25.3496 54.2112L25.3613 54.218L31.9912 58.0569L38.4658 54.3167C38.5207 54.2738 38.5793 54.2348 38.6406 54.1995L46.0479 49.9299L46.1631 49.8723L46.5986 49.6213L46.9482 49.4114C50.5198 47.1863 52.704 43.2703 52.7041 39.0432V17.9045L48.3125 15.3674L48.3008 36.7571C48.2984 40.9648 46.0526 44.8523 42.4092 46.9573L33.0977 52.3352C32.6656 52.787 31.9877 52.9306 31.4043 52.6692L31.2676 52.5989L23.8604 48.3293C23.7465 48.2637 23.6408 48.184 23.5479 48.0911L23.5312 48.0735L23.4277 47.9592C23.1539 47.6232 23.0483 47.1961 23.1094 46.7893V25.5959C23.1095 24.7676 23.781 24.0959 24.6094 24.0959C25.4377 24.0959 26.1092 24.7676 26.1094 25.5959V33.3518L37.8887 26.5354V17.9045L31.9824 14.5002L23.0811 19.6389ZM17.4014 14.3782C13.6226 16.5608 11.2951 20.5935 11.2949 24.9573V46.094L15.6855 48.6301V27.2502C15.6856 23.038 17.9336 19.1456 21.582 17.0403L31.2334 11.4709L31.4121 11.3831C31.8384 11.2075 32.3266 11.2361 32.7324 11.47L39.9609 15.636C40.449 15.8376 40.8059 16.2892 40.875 16.8313C40.8763 16.8407 40.8778 16.8502 40.8789 16.8596C40.88 16.87 40.8809 16.8804 40.8818 16.8909C40.8862 16.9346 40.8882 16.9786 40.8887 17.0227V38.4045C40.8886 39.2329 40.2171 39.9045 39.3887 39.9045C38.5603 39.9045 37.8887 39.2329 37.8887 38.4045V30.0002L26.1094 36.8167V46.1633L31.9541 49.5325L40.9082 44.3596C43.6243 42.7904 45.2989 39.8929 45.3008 36.7561L45.3135 13.634L38.6572 9.78149V9.78247L32.0088 5.94067L17.4014 14.3782Z" fill="#0EE09E"/>
</svg>
